<svg xmlns="http://www.w3.org/2000/svg" viewBox="0 0 360 360"><path d="M164.204 174.27a7.602 7.602 0 00-1.03 14.862s18.514 6.127 50.034 8.683c25.31 2.052 54.007-1.766 54.007-1.766a7.602 7.602 0 10-1.913-15.01s-28.074 3.47-50.917 1.618c-30.083-2.439-46.503-7.946-46.503-7.946a7.602 7.602 0 00-3.678-.442zm0-37.674a7.602 7.602 0 00-1.03 14.863s18.514 6.127 50.034 8.683c25.31 2.052 54.007-1.766 54.007-1.766a7.602 7.602 0 10-1.913-15.01s-28.074 3.47-50.917 1.618c-30.083-2.439-46.503-7.946-46.503-7.946a7.602 7.602 0 00-3.678-.442zm0-37.673a7.602 7.602 0 00-1.03 14.863s18.514 6.127 50.034 8.683c25.31 2.052 54.007-1.766 54.007-1.766a7.602 7.602 0 10-1.913-15.01s-28.074 3.47-50.917 1.618c-30.083-2.439-46.503-7.946-46.503-7.946a7.602 7.602 0 00-3.678-.442zm0-37.673a7.602 7.602 0 00-1.03 14.864s18.514 6.126 50.034 8.682c25.31 2.052 54.007-1.766 54.007-1.766a7.602 7.602 0 10-1.913-15.01s-28.074 3.47-50.917 1.619c-30.083-2.44-46.503-7.947-46.503-7.947a7.602 7.602 0 00-3.678-.442zm-52.78-39.73c-39.59.264-54.34 12.456-54.34 12.456V329.63s14.403-12.439 60.774-10.54c46.37 1.9 55.936 18.156 112.924 19.3 56.988 1.145 71.313-8.76 71.313-8.76l.821-301.404s-25.646 7.258-75.556 7.665c-49.91.406-61.907-12.697-107.723-14.235-2.864-.097-5.573-.155-8.213-.137zm33.125 19.3s23.99 7.93 68.302 10.128c37.451 1.859 75.009-3.695 75.009-3.695v267.87s-19.01 9.963-66.523 6.57c-36.822-2.63-77.336-16.563-77.336-16.563l.548-264.31zm-23.133 6.98a7.665 7.665 0 010 15.33s-12.408.064-19.984.822c-12.72 1.272-21.353 5.885-21.353 5.885a7.653 7.653 0 11-7.117-13.55s11.262-5.958 26.965-7.529c9.073-.907 21.49-.958 21.49-.958zm-7.391 37.778c4.237-.107 7.391 0 7.391 0a7.652 7.652 0 010 15.194s-12.408.063-19.984.821c-12.72 1.272-21.353 5.886-21.353 5.886a7.653 7.653 0 01-7.117-13.551S84.224 87.97 99.927 86.4c4.536-.454 9.86-.714 14.098-.822zm7.391 37.642a7.665 7.665 0 010 15.33s-12.408-.073-19.984.684c-12.72 1.272-21.353 5.886-21.353 5.886a7.653 7.653 0 01-7.117-13.55s11.262-5.959 26.965-7.529c9.073-.907 21.49-.821 21.49-.821z" fill="white"/></svg>
