<?xml version="1.0" encoding="utf-8"?>
<!-- Generator: Adobe Illustrator 21.1.0, SVG Export Plug-In . SVG Version: 6.00 Build 0)  -->
<svg version="1.1" id="Layer_1" xmlns="http://www.w3.org/2000/svg" xmlns:xlink="http://www.w3.org/1999/xlink" x="0px" y="0px"
     viewBox="0 0 70 70" style="enable-background:new 0 0 70 70;" xml:space="preserve">
<style type="text/css">
    .st0{fill:#A3D0E0;}
</style>
<g>
    <path class="st0" d="M32.5,63.4c-7.3,0-13.2-5.9-13.2-13.2s5.9-13.2,13.2-13.2s13.2,5.9,13.2,13.2S39.8,63.4,32.5,63.4z M32.5,38.9
        c-6.2,0-11.2,5-11.2,11.2s5,11.2,11.2,11.2c6.2,0,11.2-5,11.2-11.2S38.7,38.9,32.5,38.9z"/>
    <rect x="31.5" y="9.3" class="st0" width="2" height="28.6"/>
    <rect x="32.5" y="16.5" class="st0" width="12.2" height="2"/>
    <rect x="43.7" y="17.5" class="st0" width="2" height="11"/>
    <rect x="30.9" y="32.2" transform="matrix(0.794 -0.6079 0.6079 0.794 -12.2255 30.2887)" class="st0" width="15.4" height="2"/>
    <circle class="st0" cx="44.7" cy="17.5" r="2.6"/>
    <path class="st0" d="M47.3,28.7c0,1.5-1.2,2.6-2.6,2.6c-1.5,0-2.6-1.2-2.6-2.6c0-1.5,1.2-2.6,2.6-2.6
        C46.2,26.1,47.3,27.2,47.3,28.7z"/>
    <path class="st0" d="M35.1,37.9c0,1.5-1.2,2.7-2.6,2.7c-1.5,0-2.6-1.2-2.6-2.7c0-1.4,1.2-2.6,2.6-2.6
        C33.9,35.2,35.1,36.4,35.1,37.9z"/>
    <circle class="st0" cx="32.5" cy="17.5" r="2.6"/>
    <polygon class="st0" points="21.7,33.6 20.5,31.9 31.9,23.9 33,25.5     "/>
    <rect x="21.1" y="31.8" class="st0" width="10.9" height="2"/>
    <path class="st0" d="M24.4,33.7c-0.3,0.8-0.9,1.4-1.6,1.6c-2,0.6-3.8-1-3.5-3c0.2-1,1-1.9,2.1-2.1C23.4,29.8,25.1,31.7,24.4,33.7z"
        />
    <path class="st0" d="M35.1,9.3c0,1.4-1.2,2.6-2.6,2.6c-1.5,0-2.6-1.2-2.6-2.6c0-1.5,1.2-2.7,2.6-2.7C33.9,6.7,35.1,7.9,35.1,9.3z"
        />
    <path class="st0" d="M46.7,46.6c0,1.5-1.2,2.6-2.6,2.6c-1.5,0-2.6-1.2-2.6-2.6c0-1.5,1.2-2.6,2.6-2.6C45.5,44,46.7,45.2,46.7,46.6z
        "/>
    <path class="st0" d="M43.1,59.4c0,1.4-1.2,2.6-2.6,2.6c-1.5,0-2.6-1.2-2.6-2.6c0-1.5,1.2-2.7,2.6-2.7
        C41.9,56.7,43.1,57.9,43.1,59.4z"/>
    <path class="st0" d="M23.6,46.6c0,1.5-1.2,2.6-2.6,2.6c-1.5,0-2.6-1.2-2.6-2.6c0-1.5,1.2-2.6,2.6-2.6C22.4,44,23.6,45.2,23.6,46.6z
        "/>
    <path class="st0" d="M26.8,59.4c0,1.4-1.2,2.6-2.7,2.6c-1.5,0-2.6-1.2-2.6-2.6c0-1.5,1.2-2.7,2.6-2.7
        C25.6,56.7,26.8,57.9,26.8,59.4z"/>
</g>
<path class="st0" d="M48.4,1H12C9.3,1,7.1,3.2,7.1,5.9v58.3c0,2.7,2.2,4.9,4.9,4.9h48.6c2.7,0,4.9-2.2,4.9-4.9V18L48.4,1z
     M60.6,64.1H12V5.9h34l14.6,14.6V64.1z"/>
</svg>
